<?xml version="1.0" encoding="utf-8"?>
<svg aria-hidden="true" focusable="false" data-prefix="fas" data-icon="exclamation" class="svg-inline--fa fa-exclamation fa-w-6" role="img" viewBox="0 0 192 512" xmlns="http://www.w3.org/2000/svg">
  <path d="M 113.317 444.883 C 113.317 490.084 105.782 503.679 86.293 503.679 C 66.803 503.679 56.494 489.53 56.494 444.329 C 56.494 399.129 68.467 396.812 87.957 396.812 C 107.446 396.812 113.317 399.683 113.317 444.883 Z M 56.702 26.929 L 62.711 305.645 C 62.993 318.734 67.096 321.799 72.747 321.799 L 101.503 321.799 C 107.153 321.799 112.92 318.734 113.202 305.645 L 119.211 26.929 C 119.513 12.883 114.685 1.109 108.621 1.109 L 67.293 1.109 C 61.228 1.109 56.399 12.883 56.702 26.929 Z" style="fill: rgb(201, 202, 196);"/>
</svg>