<?xml version="1.0" encoding="utf-8"?>
<svg viewBox="0 0 100 100" xmlns="http://www.w3.org/2000/svg">
  <path d="M 107.787 82.057 C 107.787 82.897 108.007 83.697 108.447 84.457 C 108.887 85.224 109.637 86.14 110.697 87.207 C 112.27 86.294 113.364 85.45 113.977 84.677 C 114.59 83.904 114.897 83.01 114.897 81.997 C 114.897 81.064 114.584 80.3 113.957 79.707 C 113.33 79.114 112.494 78.817 111.447 78.817 C 110.36 78.817 109.477 79.11 108.797 79.697 C 108.124 80.284 107.787 81.07 107.787 82.057 Z M 110.617 101.107 C 113.557 101.107 115.997 100.17 117.937 98.297 L 109.947 90.537 C 108.594 91.37 107.637 92.057 107.077 92.597 C 106.517 93.137 106.1 93.72 105.827 94.347 C 105.56 94.967 105.427 95.674 105.427 96.467 C 105.427 97.894 105.9 99.024 106.847 99.857 C 107.794 100.69 109.05 101.107 110.617 101.107 Z M 102.287 96.537 C 102.287 94.95 102.71 93.547 103.557 92.327 C 104.404 91.114 105.924 89.884 108.117 88.637 C 107.077 87.477 106.374 86.6 106.007 86.007 C 105.634 85.407 105.337 84.784 105.117 84.137 C 104.897 83.49 104.787 82.82 104.787 82.127 C 104.787 80.3 105.384 78.874 106.577 77.847 C 107.777 76.827 109.444 76.317 111.577 76.317 C 113.55 76.317 115.104 76.824 116.237 77.837 C 117.37 78.857 117.937 80.274 117.937 82.087 C 117.937 83.394 117.52 84.6 116.687 85.707 C 115.86 86.807 114.49 87.924 112.577 89.057 L 120.017 96.207 C 120.704 95.454 121.25 94.567 121.657 93.547 C 122.064 92.527 122.407 91.414 122.687 90.207 L 125.757 90.207 C 124.93 93.694 123.684 96.34 122.017 98.147 L 127.477 103.467 L 123.297 103.467 L 119.907 100.217 C 118.474 101.504 117.01 102.427 115.517 102.987 C 114.03 103.554 112.374 103.837 110.547 103.837 C 107.927 103.837 105.894 103.19 104.447 101.897 C 103.007 100.604 102.287 98.817 102.287 96.537 Z" transform="matrix(3.412170886993408, 0, 0, 3.2737278938293457, -337.590087890625, -244.4182586669922)" style="line-height: 54.4698px; white-space: pre; fill: rgb(255, 255, 255);"/>
</svg>